<svg width="16" height="16" viewBox="0 0 16 16" fill="none" xmlns="http://www.w3.org/2000/svg">
<path d="M7.90711 15.33C6.8803 15.33 5.91535 15.1351 5.01225 14.7454C4.10915 14.3557 3.32357 13.8269 2.65553 13.1588C1.98748 12.4908 1.45861 11.7052 1.06892 10.8021C0.679222 9.899 0.484375 8.93405 0.484375 7.90724C0.484375 6.88042 0.679222 5.91547 1.06892 5.01237C1.45861 4.10927 1.98748 3.32369 2.65553 2.65565C3.32357 1.9876 4.10915 1.45873 5.01225 1.06904C5.91535 0.679344 6.8803 0.484497 7.90711 0.484497C8.71124 0.484497 9.47208 0.602024 10.1896 0.837077C10.9071 1.07213 11.569 1.39997 12.1752 1.82059L11.0989 2.91544C10.6288 2.61853 10.1278 2.38657 9.59579 2.21956C9.06382 2.05255 8.50093 1.96904 7.90711 1.96904C6.26174 1.96904 4.8607 2.5474 3.70399 3.70411C2.54728 4.86082 1.96892 6.26186 1.96892 7.90724C1.96892 9.55261 2.54728 10.9537 3.70399 12.1104C4.8607 13.2671 6.26174 13.8454 7.90711 13.8454C9.55249 13.8454 10.9535 13.2671 12.1102 12.1104C13.267 10.9537 13.8453 9.55261 13.8453 7.90724C13.8453 7.68455 13.8329 7.46187 13.8082 7.23919C13.7834 7.01651 13.7463 6.80001 13.6969 6.5897L14.903 5.3835C15.0391 5.77938 15.1443 6.18763 15.2185 6.60826C15.2927 7.02888 15.3299 7.46187 15.3299 7.90724C15.3299 8.93405 15.135 9.899 14.7453 10.8021C14.3556 11.7052 13.8267 12.4908 13.1587 13.1588C12.4907 13.8269 11.7051 14.3557 10.802 14.7454C9.89888 15.1351 8.93393 15.33 7.90711 15.33ZM6.86793 11.3217L3.71327 8.16703L4.75245 7.12785L6.86793 9.24333L14.2907 1.80203L15.3299 2.84122L6.86793 11.3217Z" fill="#EFEDEC"/>
</svg>
