<svg width="16" height="16" viewBox="0 0 16 16" fill="none" xmlns="http://www.w3.org/2000/svg">
<path d="M8.09266 15.33C7.06585 15.33 6.10089 15.1351 5.19779 14.7454C4.29469 14.3557 3.50912 13.8269 2.84107 13.1588C2.17303 12.4908 1.64416 11.7052 1.25446 10.8021C0.864769 9.899 0.669922 8.93405 0.669922 7.90724C0.669922 6.88042 0.864769 5.91547 1.25446 5.01237C1.64416 4.10927 2.17303 3.32369 2.84107 2.65565C3.50912 1.9876 4.29469 1.45873 5.19779 1.06904C6.10089 0.679344 7.06585 0.484497 8.09266 0.484497C9.11947 0.484497 10.0844 0.679344 10.9875 1.06904C11.8906 1.45873 12.6762 1.9876 13.3442 2.65565C14.0123 3.32369 14.5412 4.10927 14.9309 5.01237C15.3206 5.91547 15.5154 6.88042 15.5154 7.90724C15.5154 8.93405 15.3206 9.899 14.9309 10.8021C14.5412 11.7052 14.0123 12.4908 13.3442 13.1588C12.6762 13.8269 11.8906 14.3557 10.9875 14.7454C10.0844 15.1351 9.11947 15.33 8.09266 15.33ZM8.09266 13.8454C9.75041 13.8454 11.1545 13.2702 12.3051 12.1196C13.4556 10.9691 14.0309 9.56498 14.0309 7.90724C14.0309 6.24949 13.4556 4.84536 12.3051 3.69483C11.1545 2.54431 9.75041 1.96904 8.09266 1.96904C6.43492 1.96904 5.03078 2.54431 3.88026 3.69483C2.72973 4.84536 2.15447 6.24949 2.15447 7.90724C2.15447 9.56498 2.72973 10.9691 3.88026 12.1196C5.03078 13.2702 6.43492 13.8454 8.09266 13.8454Z" fill="#EFEDEC"/>
</svg>
